<svg width="575" height="104" viewBox="0 0 575 104" fill="none" xmlns="http://www.w3.org/2000/svg">
<g clip-path="url(#clip0_38_51)">
<path d="M42.9136 103.049H39.6245C31.0807 103.049 25.9403 103.047 22.0137 102.317L44.7386 72.2227L42.9136 103.049Z" fill="#FC1F1C"/>
<path d="M80.5019 102.409C76.6428 103.046 71.5864 103.049 63.4218 103.049H59.5335L57.6992 72.2139L80.5019 102.409Z" fill="#FC1F1C"/>
<path d="M102.201 81.5916C102.035 82.3812 101.839 83.1237 101.601 83.8376C100.042 88.5111 97.3051 92.6215 93.7383 95.8315L68.1133 67.0957L102.201 81.5916Z" fill="#FC1F1C"/>
<path d="M8.97896 95.5252C5.57455 92.3613 2.95561 88.3653 1.44514 83.8378C1.18358 83.0536 0.966405 82.2365 0.791016 81.3587L34.3251 67.1006L8.97896 95.5252Z" fill="#FC1F1C"/>
<path d="M103.051 63.4222C103.051 66.3192 103.043 68.8248 103.015 71.0244L72.582 59.2686H103.051V63.4222Z" fill="#FC1F1C"/>
<path d="M29.8745 59.2686L0.0274456 70.7959C0.00181909 68.6514 0 66.2192 0 63.4222L0 59.2686H29.8745Z" fill="#FC1F1C"/>
<path d="M63.4224 0C74.1457 0 79.5076 0.00142637 83.8372 1.44547C92.2236 4.24339 98.8059 10.8255 101.604 19.2119C103.048 23.5415 103.049 28.9035 103.049 39.6268V51.5658H70.8692L94.079 41.6991L87.1948 37.1294L64.6757 45.8249L75.2468 31.837L67.6443 29.7557L55.9709 42.8381L55.1017 28.1043H47.3575L46.4747 42.8381L34.8103 29.7557L27.2125 31.837L37.7698 45.8206L15.2643 37.1294L8.38006 41.6991L31.5853 51.5658H0L0 39.6268C0 28.9035 0.00142637 23.5415 1.44547 19.2119C4.24339 10.8255 10.8255 4.24339 19.2119 1.44547C23.5415 0.00142637 28.9035 0 39.6268 0L63.4224 0Z" fill="#FC1F1C"/>
</g>
<path d="M144.014 76.0504C139.418 76.0504 135.457 75.0875 132.131 73.1617C128.804 71.1921 126.244 68.3909 124.449 64.7581C122.698 61.1253 121.823 56.7922 121.823 51.7588C121.823 46.7254 122.698 42.3923 124.449 38.7595C126.244 35.083 128.804 32.2599 132.131 30.2903C135.457 28.3207 139.418 27.3359 144.014 27.3359C148.697 27.3359 152.68 28.3207 155.963 30.2903C159.289 32.2599 161.828 35.083 163.578 38.7595C165.373 42.3923 166.27 46.7254 166.27 51.7588C166.27 56.7922 165.373 61.1253 163.578 64.7581C161.828 68.3909 159.289 71.1921 155.963 73.1617C152.68 75.0875 148.697 76.0504 144.014 76.0504ZM144.014 68.6317C146.859 68.6317 149.266 67.9751 151.236 66.6621C153.249 65.3052 154.781 63.3794 155.831 60.8846C156.926 58.346 157.473 55.3041 157.473 51.7588C157.473 48.2136 156.926 45.1717 155.831 42.6331C154.781 40.0945 153.249 38.1468 151.236 36.79C149.266 35.4331 146.859 34.7547 144.014 34.7547C141.256 34.7547 138.871 35.4331 136.858 36.79C134.844 38.1468 133.29 40.0945 132.196 42.6331C131.146 45.1717 130.621 48.2136 130.621 51.7588C130.621 55.3041 131.146 58.346 132.196 60.8846C133.29 63.3794 134.844 65.3052 136.858 66.6621C138.871 67.9751 141.256 68.6317 144.014 68.6317ZM170.386 84.8479V39.9413H178.462L178.659 47.4257L177.805 47.0318C178.68 44.4495 180.103 42.5018 182.073 41.1887C184.086 39.8319 186.427 39.1535 189.097 39.1535C192.424 39.1535 195.181 39.9851 197.37 41.6483C199.602 43.3115 201.265 45.5218 202.359 48.2792C203.454 51.0367 204.001 54.1005 204.001 57.4707C204.001 60.8408 203.432 63.9046 202.294 66.6621C201.199 69.4195 199.536 71.6298 197.304 73.293C195.116 74.9562 192.358 75.7878 189.032 75.7878C187.281 75.7878 185.64 75.4815 184.108 74.8687C182.62 74.2559 181.328 73.3806 180.234 72.2426C179.184 71.1046 178.44 69.7696 178.002 68.2377L178.79 67.5812V84.8479H170.386ZM187.062 68.9599C189.601 68.9599 191.592 67.9532 193.037 65.9399C194.525 63.8828 195.269 61.0597 195.269 57.4707C195.269 53.8816 194.525 51.0804 193.037 49.0671C191.592 47.0099 189.601 45.9814 187.062 45.9814C185.355 45.9814 183.889 46.4191 182.663 47.2944C181.438 48.126 180.475 49.3953 179.775 51.1023C179.118 52.8093 178.79 54.9321 178.79 57.4707C178.79 60.0092 179.118 62.132 179.775 63.839C180.431 65.546 181.372 66.8371 182.598 67.7125C183.867 68.5441 185.355 68.9599 187.062 68.9599ZM222.405 75.7878C218.903 75.7878 215.862 75.0438 213.279 73.5556C210.697 72.0237 208.705 69.8791 207.305 67.1216C205.904 64.3642 205.204 61.1472 205.204 57.4707C205.204 53.7941 205.904 50.599 207.305 47.8853C208.705 45.1279 210.675 42.9832 213.214 41.4513C215.796 39.9194 218.794 39.1535 222.208 39.1535C225.534 39.1535 228.445 39.8975 230.94 41.3857C233.478 42.8738 235.426 45.0185 236.783 47.8197C238.14 50.6209 238.818 53.991 238.818 57.9302V59.8342H213.936C214.111 62.898 214.942 65.2177 216.431 66.7934C217.962 68.3253 219.976 69.0912 222.471 69.0912C224.353 69.0912 225.906 68.6754 227.132 67.8438C228.401 66.9685 229.277 65.7648 229.758 64.2329L238.359 64.7581C237.396 68.1721 235.492 70.8639 232.647 72.8335C229.846 74.803 226.432 75.7878 222.405 75.7878ZM213.936 54.188H230.152C229.977 51.343 229.167 49.2421 227.723 47.8853C226.279 46.4847 224.44 45.7844 222.208 45.7844C219.976 45.7844 218.116 46.5066 216.628 47.951C215.183 49.3953 214.286 51.4743 213.936 54.188ZM242.104 75V39.9413H249.72L250.048 49.7893L249.064 49.3953C249.414 46.9443 250.136 44.9747 251.23 43.4866C252.324 41.9984 253.659 40.9042 255.235 40.2039C256.811 39.5036 258.54 39.1535 260.422 39.1535C263.004 39.1535 265.171 39.7225 266.921 40.8604C268.716 41.9984 270.073 43.5741 270.992 45.5875C271.911 47.5571 272.371 49.8549 272.371 52.481V75H263.967V55.1728C263.967 53.2032 263.77 51.54 263.376 50.1832C262.982 48.8263 262.326 47.7978 261.406 47.0975C260.531 46.3534 259.349 45.9814 257.861 45.9814C255.629 45.9814 253.834 46.7692 252.478 48.3449C251.165 49.9206 250.508 52.1965 250.508 55.1728V75H242.104ZM277.675 75V39.9413H286.079V75H277.675ZM277.544 35.2799V27.7955H286.276V35.2799H277.544ZM292.537 75V39.9413H300.152L300.481 49.7893L299.496 49.3953C299.846 46.9443 300.568 44.9747 301.662 43.4866C302.757 41.9984 304.092 40.9042 305.667 40.2039C307.243 39.5036 308.972 39.1535 310.854 39.1535C313.436 39.1535 315.603 39.7225 317.354 40.8604C319.148 41.9984 320.505 43.5741 321.424 45.5875C322.343 47.5571 322.803 49.8549 322.803 52.481V75H314.399V55.1728C314.399 53.2032 314.202 51.54 313.808 50.1832C313.414 48.8263 312.758 47.7978 311.839 47.0975C310.963 46.3534 309.782 45.9814 308.293 45.9814C306.061 45.9814 304.267 46.7692 302.91 48.3449C301.597 49.9206 300.94 52.1965 300.94 55.1728V75H292.537ZM338.091 75.7878C334.415 75.7878 331.46 74.9562 329.228 73.293C326.996 71.586 325.88 69.2225 325.88 66.2025C325.88 63.1825 326.821 60.819 328.703 59.112C330.585 57.405 333.452 56.1795 337.303 55.4354L348.924 53.1376C348.924 50.6427 348.355 48.7826 347.217 47.5571C346.079 46.2878 344.394 45.6531 342.162 45.6531C340.148 45.6531 338.551 46.1346 337.369 47.0975C336.231 48.0166 335.443 49.3516 335.006 51.1023L326.471 50.7084C327.171 46.9881 328.878 44.1431 331.592 42.1735C334.305 40.1601 337.829 39.1535 342.162 39.1535C347.151 39.1535 350.915 40.4228 353.454 42.9613C356.036 45.4562 357.328 49.0452 357.328 53.7284V66.4651C357.328 67.3843 357.481 68.0189 357.787 68.369C358.137 68.7192 358.641 68.8943 359.297 68.8943H360.413V75C360.151 75.0875 359.713 75.1532 359.1 75.197C358.531 75.2407 357.94 75.2626 357.328 75.2626C355.883 75.2626 354.592 75.0438 353.454 74.6061C352.316 74.1246 351.441 73.3149 350.828 72.1769C350.215 70.9952 349.909 69.3976 349.909 67.3843L350.631 67.9095C350.281 69.4414 349.515 70.8201 348.333 72.0456C347.195 73.2274 345.751 74.1465 344 74.803C342.249 75.4596 340.28 75.7878 338.091 75.7878ZM339.798 69.6821C341.68 69.6821 343.3 69.3101 344.656 68.566C346.013 67.8219 347.064 66.7934 347.808 65.4803C348.552 64.1673 348.924 62.6135 348.924 60.819V58.8494L339.864 60.6876C337.982 61.0816 336.625 61.6724 335.793 62.4603C335.006 63.2043 334.612 64.1891 334.612 65.4147C334.612 66.7715 335.049 67.8219 335.925 68.566C336.844 69.3101 338.135 69.6821 339.798 69.6821ZM362.588 75V39.9413H370.466L370.795 49.6579L370.072 49.5266C370.598 46.1565 371.582 43.7273 373.027 42.2392C374.515 40.7073 376.528 39.9413 379.067 39.9413H382.284V47.1631H379.001C377.207 47.1631 375.719 47.4257 374.537 47.951C373.355 48.4762 372.458 49.3078 371.845 50.4458C371.276 51.54 370.992 52.9844 370.992 54.7789V75H362.588ZM387.125 84.8479V78.3483H391.59C392.728 78.3483 393.559 78.1732 394.084 77.8231C394.653 77.4729 395.091 76.8821 395.398 76.0504L396.382 73.6213H393.953L381.413 39.9413H390.145L398.943 65.7429L407.346 39.9413H416.078L402.357 78.6766C401.569 80.865 400.453 82.4407 399.008 83.4036C397.608 84.3665 395.638 84.8479 393.1 84.8479H387.125Z" fill="black"/>
<path d="M431.99 75V28.3864H443.61C447.856 28.3864 451.51 29.3055 454.574 31.1438C457.682 32.9383 460.045 35.5863 461.665 39.0878C463.328 42.5455 464.16 46.7692 464.16 51.7588C464.16 56.7485 463.328 60.9721 461.665 64.4299C460.045 67.8876 457.682 70.5137 454.574 72.3082C451.51 74.1027 447.856 75 443.61 75H431.99ZM440.065 67.5156H443.61C447.506 67.5156 450.504 66.2025 452.605 63.5764C454.706 60.9503 455.756 57.0111 455.756 51.7588C455.756 46.4628 454.706 42.5018 452.605 39.8757C450.504 37.2058 447.506 35.8708 443.61 35.8708H440.065V67.5156ZM482.779 75.7878C479.497 75.7878 476.608 75.0438 474.113 73.5556C471.662 72.0675 469.758 69.9447 468.401 67.1873C467.045 64.4299 466.366 61.191 466.366 57.4707C466.366 53.7503 467.045 50.5114 468.401 47.754C469.758 44.9966 471.662 42.8738 474.113 41.3857C476.608 39.8975 479.497 39.1535 482.779 39.1535C486.062 39.1535 488.929 39.8975 491.38 41.3857C493.875 42.8738 495.801 44.9966 497.157 47.754C498.514 50.4677 499.193 53.7065 499.193 57.4707C499.193 61.191 498.514 64.4299 497.157 67.1873C495.801 69.9447 493.875 72.0675 491.38 73.5556C488.929 75.0438 486.062 75.7878 482.779 75.7878ZM482.779 68.8286C485.449 68.8286 487.506 67.8438 488.951 65.8742C490.395 63.8609 491.117 61.0597 491.117 57.4707C491.117 53.8816 490.395 51.1023 488.951 49.1327C487.506 47.1194 485.449 46.1127 482.779 46.1127C480.11 46.1127 478.052 47.1194 476.608 49.1327C475.164 51.1023 474.441 53.8816 474.441 57.4707C474.441 61.0597 475.164 63.8609 476.608 65.8742C478.052 67.8438 480.11 68.8286 482.779 68.8286ZM519.585 75.7878C516.259 75.7878 513.348 75.0219 510.853 73.49C508.358 71.9581 506.411 69.8353 505.01 67.1216C503.61 64.3642 502.909 61.1472 502.909 57.4707C502.909 53.7941 503.61 50.599 505.01 47.8853C506.411 45.1279 508.358 42.9832 510.853 41.4513C513.348 39.9194 516.259 39.1535 519.585 39.1535C522.299 39.1535 524.728 39.6787 526.873 40.7291C529.061 41.7796 530.856 43.2896 532.256 45.2592C533.7 47.185 534.62 49.4829 535.014 52.1528L527.201 52.6123C526.719 50.5114 525.822 48.9139 524.509 47.8197C523.196 46.6817 521.577 46.1127 519.651 46.1127C516.937 46.1127 514.814 47.1412 513.282 49.1984C511.75 51.2117 510.985 53.9692 510.985 57.4707C510.985 60.9721 511.75 63.7515 513.282 65.8086C514.814 67.8219 516.937 68.8286 519.651 68.8286C521.577 68.8286 523.218 68.2377 524.575 67.056C525.975 65.8742 526.916 64.1454 527.398 61.8694L535.21 62.329C534.773 65.0426 533.832 67.4061 532.387 69.4195C530.987 71.4329 529.17 73.0085 526.938 74.1465C524.75 75.2407 522.299 75.7878 519.585 75.7878ZM555.406 75.7878C552.123 75.7878 549.366 75.2626 547.134 74.2122C544.901 73.1617 543.173 71.7392 541.947 69.9447C540.722 68.1502 540.021 66.1587 539.846 63.9703L547.593 63.642C547.943 65.3052 548.753 66.6402 550.022 67.6469C551.292 68.6098 553.108 69.0912 555.472 69.0912C557.66 69.0912 559.301 68.8067 560.396 68.2377C561.534 67.625 562.103 66.7277 562.103 65.546C562.103 64.8019 561.906 64.1673 561.512 63.642C561.162 63.1168 560.439 62.6791 559.345 62.329C558.251 61.9351 556.631 61.5193 554.487 61.0816C550.985 60.3813 548.228 59.5715 546.215 58.6524C544.201 57.7333 542.757 56.5734 541.881 55.1728C541.05 53.7722 540.634 52.0652 540.634 50.0519C540.634 47.9947 541.159 46.1565 542.21 44.537C543.26 42.8738 544.814 41.5607 546.871 40.5978C548.972 39.6349 551.554 39.1535 554.618 39.1535C557.945 39.1535 560.658 39.7006 562.759 40.7948C564.86 41.889 566.458 43.3115 567.552 45.0622C568.69 46.813 569.39 48.695 569.653 50.7084L561.84 51.1023C561.621 50.0956 561.205 49.1984 560.593 48.4105C559.98 47.6227 559.17 47.0099 558.163 46.5723C557.157 46.0908 555.997 45.8501 554.684 45.8501C552.539 45.8501 550.985 46.2659 550.022 47.0975C549.059 47.9291 548.578 48.9139 548.578 50.0519C548.578 50.971 548.819 51.737 549.3 52.3497C549.825 52.9187 550.679 53.4002 551.861 53.7941C553.042 54.188 554.684 54.5819 556.785 54.9758C560.242 55.6324 562.934 56.3983 564.86 57.2737C566.786 58.1491 568.121 59.2433 568.865 60.5563C569.653 61.8694 570.047 63.5107 570.047 65.4803C570.047 67.625 569.456 69.4633 568.274 70.9952C567.092 72.5271 565.407 73.7088 563.219 74.5404C561.03 75.372 558.426 75.7878 555.406 75.7878Z" fill="black" fill-opacity="0.7"/>
<defs>
<clipPath id="clip0_38_51">
<rect width="103.049" height="103.049" fill="white"/>
</clipPath>
</defs>
</svg>
