<svg width="104" height="104" viewBox="0 0 104 104" fill="none" xmlns="http://www.w3.org/2000/svg">
<g clip-path="url(#clip0_111_6)">
<mask id="mask0_111_6" style="mask-type:luminance" maskUnits="userSpaceOnUse" x="0" y="0" width="104" height="104">
<path d="M103.049 0H0V103.049H103.049V0Z" fill="white"/>
</mask>
<g mask="url(#mask0_111_6)">
<path d="M42.9136 103.049H39.6245C31.0807 103.049 25.9403 103.047 22.0137 102.317L44.7386 72.2227L42.9136 103.049Z" fill="black"/>
<path d="M80.5019 102.41C76.6427 103.047 71.5864 103.05 63.4218 103.05H59.5335L57.6992 72.2148L80.5019 102.41Z" fill="black"/>
<path d="M102.201 81.5916C102.035 82.3812 101.839 83.1237 101.601 83.8376C100.042 88.5111 97.3051 92.6215 93.7383 95.8315L68.1133 67.0957L102.201 81.5916Z" fill="black"/>
<path d="M8.97896 95.5262C5.57455 92.3623 2.95561 88.3663 1.44514 83.8388C1.18358 83.0546 0.966405 82.2375 0.791016 81.3597L34.3251 67.1016L8.97896 95.5262Z" fill="black"/>
<path d="M103.051 63.4231C103.051 66.3201 103.043 68.8257 103.015 71.0253L72.582 59.2695H103.051V63.4231Z" fill="black"/>
<path d="M29.8745 59.2695L0.0274456 70.7968C0.00181909 68.6523 0 66.2201 0 63.4231V59.2695H29.8745Z" fill="black"/>
<path d="M63.4224 0C74.1457 0 79.5076 0.00142634 83.8372 1.44547C92.2236 4.24338 98.8059 10.8255 101.604 19.2119C103.048 23.5415 103.049 28.9035 103.049 39.6268V51.5658H70.8692L94.079 41.6991L87.1948 37.1294L64.6757 45.8249L75.2468 31.837L67.6443 29.7557L55.9709 42.8381L55.1017 28.1043H47.3575L46.4747 42.8381L34.8103 29.7557L27.2125 31.837L37.7698 45.8206L15.2643 37.1294L8.38006 41.6991L31.5853 51.5658H0V39.6268C0 28.9035 0.00142634 23.5415 1.44547 19.2119C4.24338 10.8255 10.8255 4.24338 19.2119 1.44547C23.5415 0.00142634 28.9035 0 39.6268 0H63.4224Z" fill="black"/>
</g>
</g>
<defs>
<clipPath id="clip0_111_6">
<rect width="104" height="104" fill="white"/>
</clipPath>
</defs>
</svg>
