<svg width="23" height="23" viewBox="0 0 23 23" fill="none" xmlns="http://www.w3.org/2000/svg">
<g opacity="0.7">
<path d="M7.72377 1.51514H13.7564L7.49441 20.0717C7.42948 20.2621 7.30648 20.4273 7.14274 20.544C6.979 20.6608 6.78276 20.7233 6.58164 20.7227H1.88805C1.73547 20.7231 1.585 20.687 1.44915 20.6175C1.3133 20.548 1.19598 20.4472 1.10695 20.3232C1.01792 20.1993 0.959737 20.0559 0.93724 19.905C0.914743 19.7541 0.928579 19.6 0.977599 19.4555L6.81099 2.17307C6.87514 1.98186 6.9978 1.81567 7.16161 1.69801C7.32542 1.58035 7.52208 1.51719 7.72377 1.51745V1.51514Z" fill="#737373"/>
<path d="M16.4867 13.9603H6.92117C6.83223 13.9603 6.74535 13.987 6.67185 14.0371C6.59836 14.0872 6.54165 14.1582 6.50914 14.241C6.47663 14.3238 6.46982 14.4145 6.48959 14.5012C6.50937 14.5879 6.55481 14.6666 6.62 14.7271L12.7661 20.4632C12.945 20.6311 13.1811 20.7247 13.4264 20.725H18.8428L16.4867 13.9603Z" fill="#737373"/>
<path d="M7.72346 1.51512C7.51968 1.51408 7.32093 1.57828 7.15627 1.69834C6.99161 1.81839 6.8697 1.98799 6.80837 2.18232L0.98424 19.4416C0.932119 19.5866 0.915722 19.7421 0.936437 19.8948C0.957152 20.0476 1.01437 20.193 1.10324 20.319C1.19212 20.4449 1.31003 20.5475 1.44699 20.6182C1.58395 20.6889 1.73594 20.7255 1.89006 20.725H6.70644C6.8854 20.6927 7.05259 20.6134 7.19095 20.4954C7.32932 20.3774 7.43393 20.2248 7.49411 20.0532L8.65708 16.6291L12.8062 20.498C12.9805 20.6418 13.1989 20.7211 13.4248 20.7227H18.8203L16.4527 13.9603H9.55363L13.7769 1.51744L7.72346 1.51512Z" fill="#737373"/>
<path d="M15.4284 2.16844C15.3643 1.97785 15.2419 1.81223 15.0785 1.69499C14.9151 1.57776 14.719 1.51484 14.5179 1.51514H7.79492C7.99593 1.51519 8.19186 1.57824 8.35517 1.69543C8.51848 1.81261 8.64096 1.97804 8.70538 2.16844L14.5388 19.4555C14.5877 19.6001 14.6015 19.7543 14.579 19.9053C14.5565 20.0564 14.4983 20.1998 14.4093 20.3239C14.3204 20.448 14.2031 20.5491 14.0673 20.6188C13.9315 20.6886 13.781 20.725 13.6283 20.725H20.3513C20.504 20.725 20.6545 20.6886 20.7903 20.6188C20.9261 20.5491 21.0434 20.448 21.1323 20.3239C21.2213 20.1998 21.2795 20.0564 21.302 19.9053C21.3245 19.7543 21.3107 19.6001 21.2618 19.4555L15.4284 2.16844Z" fill="#737373"/>
</g>
</svg>
