<svg width="104" height="104" viewBox="0 0 104 104" fill="none" xmlns="http://www.w3.org/2000/svg">
<g clip-path="url(#clip0_38_75)">
<path d="M42.9136 103.049H39.6245C31.0807 103.049 25.9403 103.047 22.0137 102.317L44.7386 72.2227L42.9136 103.049Z" fill="#FC1F1C"/>
<path d="M80.5019 102.409C76.6428 103.046 71.5864 103.049 63.4218 103.049H59.5335L57.6992 72.2139L80.5019 102.409Z" fill="#FC1F1C"/>
<path d="M102.201 81.5916C102.035 82.3812 101.839 83.1237 101.601 83.8376C100.042 88.5111 97.3051 92.6215 93.7383 95.8315L68.1133 67.0957L102.201 81.5916Z" fill="#FC1F1C"/>
<path d="M8.97896 95.5252C5.57455 92.3613 2.95561 88.3653 1.44514 83.8378C1.18358 83.0536 0.966405 82.2365 0.791016 81.3587L34.3251 67.1006L8.97896 95.5252Z" fill="#FC1F1C"/>
<path d="M103.051 63.4222C103.051 66.3192 103.043 68.8248 103.015 71.0244L72.582 59.2686H103.051V63.4222Z" fill="#FC1F1C"/>
<path d="M29.8745 59.2686L0.0274456 70.7959C0.00181909 68.6514 0 66.2192 0 63.4222L0 59.2686H29.8745Z" fill="#FC1F1C"/>
<path d="M63.4224 0C74.1457 0 79.5076 0.00142637 83.8372 1.44547C92.2236 4.24339 98.8059 10.8255 101.604 19.2119C103.048 23.5415 103.049 28.9035 103.049 39.6268V51.5658H70.8692L94.079 41.6991L87.1948 37.1294L64.6757 45.8249L75.2468 31.837L67.6443 29.7557L55.9709 42.8381L55.1017 28.1043H47.3575L46.4747 42.8381L34.8103 29.7557L27.2125 31.837L37.7698 45.8206L15.2643 37.1294L8.38006 41.6991L31.5853 51.5658H0L0 39.6268C0 28.9035 0.00142637 23.5415 1.44547 19.2119C4.24339 10.8255 10.8255 4.24339 19.2119 1.44547C23.5415 0.00142637 28.9035 0 39.6268 0L63.4224 0Z" fill="#FC1F1C"/>
</g>
<defs>
<clipPath id="clip0_38_75">
<rect width="103.049" height="103.049" fill="white"/>
</clipPath>
</defs>
</svg>
